<svg width="28" height="29" viewBox="0 0 28 29" fill="none" xmlns="http://www.w3.org/2000/svg">
<path d="M16.5899 25.735C15.2133 25.735 13.2649 24.7667 11.7249 20.135L10.8849 17.615L8.36494 16.775C3.74494 15.235 2.77661 13.2867 2.77661 11.91C2.77661 10.545 3.74494 8.58502 8.36494 7.03336L18.2699 3.73169C20.7433 2.90336 22.8083 3.14836 24.0799 4.40836C25.3516 5.66836 25.5966 7.74502 24.7683 10.2184L21.4666 20.1234C19.9149 24.7667 17.9666 25.735 16.5899 25.735ZM8.91328 8.70169C5.66994 9.78669 4.51494 11.07 4.51494 11.91C4.51494 12.75 5.66994 14.0334 8.91328 15.1067L11.8533 16.0867C12.1099 16.1684 12.3199 16.3784 12.4016 16.635L13.3816 19.575C14.4549 22.8184 15.7499 23.9734 16.5899 23.9734C17.4299 23.9734 18.7133 22.8184 19.7983 19.575L23.0999 9.67002C23.6949 7.87336 23.5899 6.40336 22.8316 5.64502C22.0733 4.88669 20.6033 4.79336 18.8183 5.38836L8.91328 8.70169Z" fill="black"/>
<path d="M11.7949 17.3C11.5733 17.3 11.3516 17.2183 11.1766 17.0433C10.8383 16.705 10.8383 16.145 11.1766 15.8066L15.3533 11.6183C15.6916 11.28 16.2516 11.28 16.5899 11.6183C16.9283 11.9566 16.9283 12.5166 16.5899 12.855L12.4133 17.0433C12.2499 17.2183 12.0166 17.3 11.7949 17.3Z" fill="black"/>
</svg>
